<svg width="533" height="528" viewBox="0 0 533 528" fill="none" xmlns="http://www.w3.org/2000/svg">
<path d="M216.16 197.806C213.933 200.171 211.807 202.655 209.447 204.875C206.217 207.914 202.198 207.914 199.403 205.121C196.607 202.328 196.57 198.185 199.617 195.076C206.04 188.581 212.56 182.19 219.176 175.901C222.539 172.717 226.18 172.811 229.53 176.078C235.97 182.345 242.327 188.695 248.603 195.127C251.884 198.481 252.036 202.201 249.316 205.127C246.509 208.16 242.344 208.217 238.975 204.925C236.754 202.763 234.937 200.19 232.937 197.8L230.899 198.702C231.316 207.813 231.284 216.988 232.42 225.999C232.792 228.931 235.802 231.945 238.3 234.126C258.069 251.328 277.94 268.408 297.911 285.365C306.612 292.756 311.249 301.583 310.858 313.11C310.6 320.733 310.858 328.376 310.789 336.012C310.751 341.056 307.969 344.121 303.754 344.058C299.722 344.001 297.003 341.012 296.94 336.232C296.845 328.596 296.75 320.954 296.94 313.331C297.135 306.224 294.605 300.719 289.135 296.085C269.26 279.243 249.632 262.111 229.763 245.262C221.303 238.093 217.05 229.265 217.252 218.199C217.372 211.622 217.252 205.045 217.252 198.469L216.16 197.806Z" fill="#B030B0"/>
<path d="M310.707 198.286C310.707 205.266 310.65 212.24 310.707 219.22C310.808 229.435 306.984 237.803 299.211 244.442C293.533 249.291 287.924 254.21 281.917 259.418L271.128 250.3C277.538 244.714 283.57 239.341 289.734 234.133C294.384 230.198 296.738 225.393 296.618 219.252C296.485 212.391 296.618 205.518 296.618 197.258C293.678 200.146 291.57 202.252 289.419 204.314C285.709 207.864 281.734 208.148 278.731 205.121C275.727 202.094 275.936 198.052 279.57 194.452C285.846 188.247 292.182 182.101 298.58 176.014C302.195 172.584 305.653 172.572 309.23 176.046C315.54 182.2 321.792 188.462 327.976 194.761C331.282 198.122 331.477 202.328 328.708 205.121C325.723 208.135 321.673 207.858 317.982 204.352C316.896 203.318 315.817 202.283 314.827 201.199C313.836 200.114 312.934 198.86 312.013 197.687L310.707 198.286Z" fill="#B030B0"/>
<path d="M246.042 271.809L256.856 280.989C250.944 286.034 245.348 291.198 239.385 295.871C233.423 300.543 230.842 306.268 231.183 313.772C231.498 320.941 231.297 328.142 231.227 335.324C231.177 340.829 228.602 343.976 224.287 344.058C219.788 344.146 217.176 340.905 217.157 335.148C217.157 326.919 217.107 318.684 217.157 310.455C217.208 302.227 219.977 295.044 225.826 289.439C232.218 283.341 239.101 277.824 246.042 271.809Z" fill="#B030B0"/>
<path d="M224.811 361.486C224.811 361.486 256.642 406.256 299.079 361.486" stroke="#B030B0" stroke-width="25.22" stroke-linecap="round" stroke-linejoin="round"/>
<path d="M210.457 439.133V479.64C210.457 479.64 253.991 552.853 318.739 479.64V433.83" stroke="#B030B0" stroke-width="31.5" stroke-linecap="round" stroke-linejoin="round"/>
<path d="M261.014 436.314C345.721 436.314 414.389 367.688 414.389 283.032C414.389 198.377 345.721 129.751 261.014 129.751C176.307 129.751 107.639 198.377 107.639 283.032C107.639 367.688 176.307 436.314 261.014 436.314Z" stroke="#B030B0" stroke-width="27.87" stroke-linecap="round" stroke-linejoin="round"/>
<path d="M133.419 417.814L102.49 440.142" stroke="#B030B0" stroke-width="31.5" stroke-linecap="round" stroke-linejoin="round"/>
<path d="M72.4131 276.128L16.5623 278.707" stroke="#B030B0" stroke-width="31.5" stroke-linecap="round" stroke-linejoin="round"/>
<path d="M113.658 140.451L83.587 120.702" stroke="#B030B0" stroke-width="31.5" stroke-linecap="round" stroke-linejoin="round"/>
<path d="M399.777 417.17L430.705 439.498" stroke="#B030B0" stroke-width="31.5" stroke-linecap="round" stroke-linejoin="round"/>
<path d="M460.782 275.485L516.627 278.064" stroke="#B030B0" stroke-width="31.5" stroke-linecap="round" stroke-linejoin="round"/>
<path d="M419.538 139.814L449.608 120.059" stroke="#B030B0" stroke-width="31.5" stroke-linecap="round" stroke-linejoin="round"/>
<path d="M254.572 89.7923V15.9417" stroke="#B030B0" stroke-width="31.5" stroke-linecap="round" stroke-linejoin="round"/>
</svg>
